{"glyphs":{":":{"x_min":0,"x_max":324,"ha":324,"o":"m 90 66 q 90 93 112 115 q 135 138 161 138 q 190 138 212 116 q 234 94 234 66 q 234 35 213 15 q 192 -6 161 -6 q 132 -6 111 15 q 90 37 90 66 z m 90 403 q 90 430 112 452 q 135 475 161 475 q 190 475 212 453 q 234 431 234 403 q 234 373 213 352 q 192 331 162 331 q 132 331 111 352 q 90 374 90 403 z"},"$":{"x_min":0,"x_max":560,"ha":560,"o":"m 299 45 q 346 50 373 76 q 399 103 399 144 q 399 183 377 207 q 355 231 299 253 z m 248 439 l 248 618 q 207 614 184 594 q 162 573 162 537 q 162 502 182 479 q 202 456 248 439 z m 72 9 l 72 183 l 128 183 q 139 126 169 94 q 198 61 248 50 l 248 277 q 147 318 107 365 q 67 411 67 483 q 67 562 115 610 q 164 658 248 662 l 248 733 l 299 733 l 299 658 q 329 653 354 643 q 379 632 402 614 l 421 657 l 468 657 l 468 484 l 413 484 q 410 533 381 565 q 352 598 299 613 l 299 415 q 411 373 458 322 q 506 271 506 197 q 506 111 449 56 q 392 2 299 0 l 299 -105 l 248 -105 l 248 4 q 222 5 196 16 q 170 26 141 48 l 122 9 z"},"?":{"x_min":0,"x_max":449,"ha":449,"o":"m 145 67 q 145 94 167 116 q 189 139 216 139 q 245 139 267 117 q 289 95 289 67 q 289 37 268 16 q 247 -5 217 -5 q 188 -5 166 16 q 145 37 145 67 z m 348 253 q 337 217 309 198 q 281 179 236 179 q 178 179 144 211 q 110 244 110 299 q 110 334 127 370 q 144 405 184 452 q 194 463 213 484 q 269 544 269 579 q 269 605 255 619 q 241 634 215 634 q 187 634 171 618 q 156 602 156 572 q 156 563 157 554 q 158 545 159 535 l 62 535 l 62 544 l 62 554 q 62 611 105 647 q 147 683 219 683 q 291 683 333 645 q 375 607 375 543 q 375 507 355 470 q 335 433 289 384 q 283 378 272 366 q 202 294 202 261 q 202 245 211 236 q 220 226 234 226 q 252 226 264 241 q 276 256 285 292 z"},"<":{"x_min":0,"x_max":833,"ha":833,"o":"m 704 583 l 704 476 l 268 298 l 704 120 l 704 13 l 129 250 l 129 347 z"},"'":{"x_min":0,"x_max":178,"ha":178,"o":"m 99 416 l 79 416 l 40 641 q 39 647 39 651 q 38 656 38 659 q 38 685 52 700 q 65 715 89 715 q 112 715 126 701 q 139 687 139 661 q 139 653 139 649 q 139 645 138 641 z"},"=":{"x_min":0,"x_max":833,"ha":833,"o":"m 124 242 l 709 242 l 709 145 l 124 145 z m 124 452 l 709 452 l 709 355 l 124 355 z"},"a":{"x_min":0,"x_max":558,"ha":558,"o":"m 329 117 l 329 200 q 329 220 309 236 q 288 251 259 251 q 222 251 202 225 q 182 200 182 152 q 182 104 202 77 q 222 50 257 50 q 288 50 308 70 q 329 90 329 117 z m 329 0 l 329 45 q 304 17 270 2 q 236 -12 195 -12 q 123 -12 82 30 q 40 73 40 147 q 40 217 87 263 q 134 308 208 308 q 246 308 276 297 q 306 286 329 263 l 329 324 q 329 392 310 413 q 292 434 242 434 q 206 434 177 421 q 149 407 121 377 l 74 430 q 104 458 153 472 q 203 486 269 486 q 375 486 419 450 q 463 415 463 328 l 463 53 l 524 53 l 524 0 z"},"L":{"x_min":0,"x_max":606,"ha":606,"o":"m 290 69 l 522 69 l 522 153 l 587 153 l 587 0 l 56 0 l 56 58 l 139 58 l 139 616 l 56 616 l 56 674 l 381 674 l 381 616 l 290 616 z"},"3":{"x_min":0,"x_max":560,"ha":560,"o":"m 170 202 l 170 192 q 170 115 193 76 q 216 38 262 38 q 309 38 331 78 q 352 118 352 207 q 352 280 326 308 q 301 337 237 337 l 213 337 l 213 390 l 238 390 q 308 390 330 417 q 351 444 351 515 q 351 572 334 599 q 318 626 282 626 q 237 626 218 595 q 198 565 198 493 l 198 487 l 81 487 l 81 494 q 81 583 135 627 q 188 672 294 672 q 386 672 438 628 q 490 583 490 505 q 490 457 462 420 q 434 384 383 366 q 442 347 472 304 q 502 262 502 197 q 502 104 438 48 q 375 -9 270 -9 q 163 -9 104 44 q 45 97 45 193 l 45 202 z"},";":{"x_min":0,"x_max":324,"ha":324,"o":"m 95 -115 l 95 142 l 247 142 l 153 -115 z m 90 403 q 90 430 112 452 q 135 475 161 475 q 190 475 212 453 q 234 431 234 403 q 234 373 213 352 q 192 331 162 331 q 132 331 111 352 q 90 374 90 403 z"},"J":{"x_min":0,"x_max":521,"ha":521,"o":"m 241 616 l 156 616 l 156 674 l 473 674 l 473 616 l 391 616 l 391 234 q 391 167 386 133 q 381 99 369 77 q 347 36 301 13 q 255 -9 190 -9 q 105 -9 58 33 q 11 76 11 151 q 11 162 11 169 q 12 176 12 182 l 137 182 q 136 170 135 159 q 135 147 135 130 q 135 88 148 67 q 161 46 187 46 q 217 46 229 70 q 241 94 241 174 z"},"V":{"x_min":0,"x_max":727,"ha":727,"o":"m 320 0 l 59 616 l -10 616 l -10 674 l 303 674 l 303 616 l 223 616 l 416 151 l 610 616 l 530 616 l 530 674 l 732 674 l 732 616 l 673 616 l 412 0 z"},"\"":{"x_min":0,"x_max":345,"ha":345,"o":"m 265 416 l 245 416 l 206 641 q 205 647 205 651 q 204 656 204 659 q 204 685 218 700 q 231 715 255 715 q 279 715 292 700 q 306 686 306 661 q 306 658 306 654 q 305 649 304 641 z m 99 416 l 79 416 l 40 641 q 40 645 39 648 q 39 652 39 659 q 39 685 53 700 q 66 715 89 715 q 112 715 126 701 q 139 687 139 661 q 139 653 139 649 q 139 645 138 641 z"},"7":{"x_min":0,"x_max":560,"ha":560,"o":"m 111 0 l 370 551 l 121 551 l 121 480 l 61 480 l 61 662 l 503 662 l 266 0 z"},"S":{"x_min":0,"x_max":632,"ha":632,"o":"m 73 0 l 73 183 l 137 183 q 152 113 198 76 q 245 39 319 39 q 377 39 411 67 q 446 95 446 142 q 446 208 311 264 q 297 270 290 273 q 145 335 106 380 q 67 425 67 497 q 67 582 125 632 q 183 683 280 683 q 332 683 373 671 q 413 660 450 634 l 471 678 l 524 678 l 524 498 l 462 498 q 458 558 409 598 q 359 637 287 637 q 237 637 206 614 q 176 590 176 551 q 176 517 199 494 q 223 472 317 432 q 329 427 351 418 q 452 377 488 350 q 529 319 548 281 q 568 244 568 196 q 568 105 502 48 q 436 -9 328 -9 q 272 -9 230 3 q 188 15 151 41 l 130 0 z"},"}":{"x_min":0,"x_max":500,"ha":500,"o":"m 84 740 q 199 740 241 705 q 283 669 283 571 l 283 477 q 283 396 311 366 q 338 336 414 329 l 414 292 q 338 285 311 255 q 283 225 283 144 l 283 50 q 283 -47 242 -83 q 200 -119 90 -119 l 84 -119 l 84 -90 q 142 -89 164 -63 q 186 -38 186 39 l 186 105 q 186 215 212 255 q 238 294 308 310 q 238 326 212 366 q 186 406 186 516 l 186 581 q 186 657 164 683 q 142 709 84 710 z"},"Z":{"x_min":0,"x_max":639,"ha":639,"o":"m 30 0 l 23 8 l 403 606 l 114 606 l 114 532 l 49 532 l 49 674 l 598 674 l 600 666 l 223 67 l 537 67 l 537 155 l 602 155 l 602 0 z"},"x":{"x_min":0,"x_max":519,"ha":519,"o":"m 381 421 l 329 421 l 329 475 l 506 475 l 506 421 l 455 421 l 320 266 l 475 53 l 527 53 l 527 0 l 258 0 l 258 53 l 315 53 l 233 167 l 145 53 l 192 53 l 192 0 l 6 0 l 6 53 l 71 53 l 203 208 l 47 421 l 6 421 l 6 475 l 271 475 l 271 421 l 207 421 l 289 309 z"},")":{"x_min":0,"x_max":380,"ha":380,"o":"m 52 -117 q 94 -106 110 -68 q 126 -30 126 101 l 126 463 q 126 594 110 632 q 94 670 52 681 l 52 733 q 153 718 209 600 q 265 482 265 282 q 265 82 209 -36 q 153 -154 52 -169 z"},"&":{"x_min":0,"x_max":653,"ha":653,"o":"m 327 424 q 357 442 373 465 q 388 489 388 517 q 388 545 371 564 q 353 583 327 583 q 303 583 290 571 q 276 559 276 538 q 276 521 289 490 q 303 460 327 424 z m 365 80 l 236 315 q 201 293 184 267 q 167 240 167 209 q 167 146 204 103 q 240 59 295 59 q 311 59 328 64 q 345 69 365 80 z m 389 35 q 351 12 314 2 q 278 -9 238 -9 q 152 -9 99 39 q 47 86 47 163 q 47 226 87 275 q 126 325 209 366 q 184 412 172 445 q 160 479 160 505 q 160 562 203 601 q 246 639 312 639 q 373 639 410 605 q 448 571 448 516 q 448 474 424 438 q 400 403 354 376 l 467 166 q 490 191 501 223 q 513 255 513 293 q 513 297 512 311 q 511 321 511 326 l 601 342 q 597 282 570 227 q 543 172 492 120 l 530 53 l 585 53 l 585 0 l 409 0 z"},"_":{"x_min":0,"x_max":500,"ha":500,"o":"m 0 -136 l 500 -136 l 500 -236 l 0 -236 z"},"v":{"x_min":0,"x_max":535,"ha":535,"o":"m 229 0 l 50 421 l 2 421 l 2 475 l 251 475 l 251 421 l 195 421 l 309 138 l 421 421 l 365 421 l 365 475 l 529 475 l 529 421 l 481 421 l 310 0 z"},"O":{"x_min":0,"x_max":819,"ha":819,"o":"m 410 41 q 500 41 550 119 q 600 196 600 337 q 600 479 550 556 q 500 633 410 633 q 319 633 270 556 q 220 479 220 337 q 220 196 270 119 q 320 41 410 41 z m 410 -9 q 254 -9 151 89 q 48 188 48 337 q 48 403 69 460 q 90 518 131 564 q 182 621 255 652 q 328 683 410 683 q 480 683 543 660 q 606 638 657 594 q 713 546 742 481 q 771 416 771 337 q 771 188 668 89 q 566 -9 410 -9 z"},"(":{"x_min":0,"x_max":380,"ha":380,"o":"m 317 681 q 275 670 259 632 q 243 594 243 463 l 243 101 q 243 -30 259 -68 q 275 -106 317 -117 l 317 -169 q 216 -154 160 -36 q 104 82 104 282 q 104 483 160 601 q 216 718 317 733 z"},"C":{"x_min":0,"x_max":734,"ha":734,"o":"m 716 114 q 659 51 589 21 q 519 -9 426 -9 q 252 -9 147 89 q 43 187 43 348 q 43 496 138 589 q 232 683 381 683 q 453 683 506 667 q 558 652 599 619 l 634 674 l 688 674 l 688 478 l 624 478 q 610 547 558 587 q 505 627 430 627 q 330 627 271 552 q 212 476 212 346 q 212 207 277 126 q 341 45 452 45 q 521 45 569 71 q 617 97 663 159 z"},"W":{"x_min":0,"x_max":979,"ha":979,"o":"m 257 -5 l 72 616 l 12 616 l 12 674 l 306 674 l 306 616 l 223 616 l 350 188 l 500 674 l 585 674 l 731 200 l 855 616 l 777 616 l 777 674 l 972 674 l 972 616 l 914 616 l 724 -5 l 641 -5 l 498 483 l 344 -5 z"},"A":{"x_min":0,"x_max":741,"ha":741,"o":"m 194 238 l 438 238 l 313 533 z m 0 0 l 0 58 l 59 58 l 308 678 l 407 678 l 677 58 l 738 58 l 738 0 l 438 0 l 438 58 l 512 58 l 456 185 l 173 185 l 124 58 l 198 58 l 198 0 z"},"f":{"x_min":0,"x_max":352,"ha":352,"o":"m 41 0 l 41 53 l 106 53 l 106 421 l 41 421 l 41 475 l 106 475 q 105 478 105 483 q 100 518 100 533 q 100 603 135 643 q 169 683 229 683 q 262 683 286 675 q 310 667 326 650 l 277 562 q 263 577 248 584 q 233 591 214 591 q 190 591 174 575 q 158 560 158 538 q 158 506 184 490 q 210 475 265 475 l 321 475 l 321 421 l 240 421 l 240 53 l 309 53 l 309 0 z"},"Q":{"x_min":0,"x_max":819,"ha":819,"o":"m 639 -95 l 526 9 q 498 0 470 -4 q 442 -9 413 -9 q 254 -9 151 89 q 48 187 48 337 q 48 402 69 460 q 90 518 131 564 q 182 621 255 652 q 328 683 410 683 q 565 683 668 585 q 771 486 771 337 q 771 249 734 177 q 697 106 625 56 l 711 -23 z m 474 195 l 558 121 q 580 158 590 207 q 600 255 600 323 q 600 474 551 553 q 502 633 410 633 q 319 633 270 556 q 220 479 220 337 q 220 194 270 118 q 319 42 411 42 q 428 42 444 45 q 460 48 477 54 l 401 124 z"},"w":{"x_min":0,"x_max":799,"ha":799,"o":"m 211 0 l 49 421 l -6 421 l -6 475 l 253 475 l 253 421 l 190 421 l 291 157 l 415 486 l 466 486 l 581 157 l 683 421 l 620 421 l 620 475 l 794 475 l 794 421 l 744 421 l 574 0 l 507 0 l 396 297 l 278 0 z"},"-":{"x_min":0,"x_max":370,"ha":370,"o":"m 54 187 l 54 299 l 316 299 l 316 187 z"},"E":{"x_min":0,"x_max":690,"ha":690,"o":"m 56 0 l 56 58 l 139 58 l 139 616 l 56 616 l 56 674 l 601 674 l 601 530 l 537 530 l 537 604 l 290 604 l 290 385 l 503 385 l 503 459 l 568 459 l 568 260 l 503 260 l 503 334 l 290 334 l 290 69 l 548 69 l 548 145 l 613 145 l 613 0 z"},"s":{"x_min":0,"x_max":461,"ha":461,"o":"m 57 0 l 57 137 l 118 137 q 131 84 160 59 q 189 34 237 34 q 271 34 291 50 q 310 65 310 94 q 310 137 225 176 l 216 180 l 203 186 q 57 253 57 343 q 57 406 99 446 q 141 486 207 486 q 245 486 276 474 q 307 462 327 440 l 327 475 l 387 475 l 387 353 l 326 353 q 322 393 294 417 q 266 441 224 441 q 194 441 176 427 q 157 412 157 390 q 157 354 247 315 q 259 310 266 307 q 362 264 389 230 q 417 196 417 142 q 417 74 373 31 q 329 -12 259 -12 q 215 -12 181 -1 q 147 10 118 35 l 118 0 z"},">":{"x_min":0,"x_max":833,"ha":833,"o":"m 129 583 l 704 347 l 704 250 l 129 13 l 129 120 l 566 298 l 129 476 z"},"l":{"x_min":0,"x_max":331,"ha":331,"o":"m 34 0 l 34 53 l 98 53 l 98 620 l 34 620 l 34 674 l 233 674 l 233 53 l 297 53 l 297 0 z"},"8":{"x_min":0,"x_max":560,"ha":560,"o":"m 279 38 q 320 38 342 76 q 364 114 364 187 q 364 259 342 298 q 320 336 279 336 q 238 336 216 298 q 194 260 194 187 q 194 115 216 76 q 238 38 279 38 z m 280 375 q 319 375 339 408 q 360 440 360 502 q 360 563 339 596 q 319 628 280 628 q 241 628 220 595 q 199 563 199 502 q 199 441 220 408 q 241 375 280 375 z m 392 356 q 451 333 480 291 q 509 249 509 188 q 509 95 448 43 q 388 -9 280 -9 q 172 -9 111 43 q 51 95 51 188 q 51 250 80 291 q 109 333 168 356 q 115 372 90 406 q 64 441 64 496 q 64 577 122 624 q 180 671 280 671 q 382 671 439 623 q 496 576 496 490 q 496 439 469 405 q 443 371 392 356 z"},"\\":{"x_min":0,"x_max":287,"ha":287,"o":"m -23 683 l 56 683 l 338 -93 l 259 -93 z"},"e":{"x_min":0,"x_max":544,"ha":544,"o":"m 181 278 l 365 278 l 365 295 q 365 364 343 402 q 320 440 279 440 q 230 440 207 401 q 183 362 181 278 z m 509 96 q 472 42 416 15 q 359 -12 285 -12 q 175 -12 107 58 q 39 128 39 240 q 39 350 104 418 q 168 486 272 486 q 374 486 438 423 q 503 361 503 264 q 503 257 502 237 q 501 229 501 225 l 182 225 l 182 222 q 182 138 219 91 q 256 43 321 43 q 362 43 394 64 q 426 85 459 134 z"},"b":{"x_min":0,"x_max":574,"ha":574,"o":"m 209 265 l 209 194 q 209 110 230 72 q 252 33 298 33 q 346 33 369 80 q 391 127 391 229 q 391 331 369 378 q 346 425 298 425 q 251 425 230 388 q 209 351 209 265 z m 161 67 l 112 0 l 75 0 l 75 620 l 10 620 l 10 674 l 209 674 l 209 420 q 231 453 265 469 q 299 486 346 486 q 433 486 484 419 q 535 352 535 237 q 535 119 479 53 q 423 -12 324 -12 q 267 -12 229 7 q 190 25 161 67 z"},"%":{"x_min":0,"x_max":815,"ha":815,"o":"m 622 0 q 549 0 503 45 q 457 90 457 161 q 457 231 503 276 q 549 321 622 321 q 694 321 741 276 q 787 231 787 161 q 787 90 741 45 q 694 0 622 0 z m 620 30 q 651 30 672 66 q 692 102 692 160 q 692 218 672 255 q 651 291 620 291 q 589 291 571 255 q 552 220 552 160 q 552 101 570 65 q 588 30 618 30 z m 194 -33 l 564 694 l 621 694 l 251 -33 z m 195 370 q 226 370 244 406 q 263 442 263 502 q 263 561 244 596 q 226 631 195 631 q 163 631 143 595 q 123 560 123 502 q 123 443 143 406 q 163 370 195 370 z m 193 340 q 121 340 74 385 q 28 430 28 501 q 28 571 74 616 q 120 661 193 661 q 265 661 312 616 q 358 571 358 501 q 358 431 312 386 q 266 341 193 340 z"},"m":{"x_min":0,"x_max":889,"ha":889,"o":"m 41 0 l 41 53 l 105 53 l 105 421 l 41 421 l 41 475 l 240 475 l 240 409 q 262 448 296 467 q 331 486 380 486 q 433 486 466 464 q 500 442 511 400 q 537 445 572 466 q 607 486 658 486 q 731 486 763 449 q 795 412 795 323 l 795 53 l 860 53 l 860 0 l 615 0 l 615 53 l 661 53 l 661 312 q 661 369 646 391 q 632 413 597 413 q 557 413 537 375 q 517 338 517 263 l 517 53 l 564 53 l 564 0 l 337 0 l 337 53 l 383 53 l 383 312 q 383 369 368 391 q 354 413 319 413 q 279 413 260 376 q 240 338 240 263 l 240 53 l 286 53 l 286 0 z"},"#":{"x_min":0,"x_max":769,"ha":769,"o":"m 344 416 l 300 293 l 429 293 l 472 416 z m 347 715 l 452 715 l 380 512 l 504 512 l 577 715 l 681 715 l 609 512 l 747 512 l 711 415 l 575 415 l 532 294 l 675 294 l 640 198 l 498 198 l 426 -5 l 321 -5 l 393 198 l 269 198 l 196 -5 l 91 -5 l 163 198 l 22 198 l 58 294 l 198 294 l 241 415 l 93 415 l 129 512 l 275 512 z"},",":{"x_min":0,"x_max":280,"ha":280,"o":"m 70 -115 l 70 142 l 222 142 l 128 -115 z"},"n":{"x_min":0,"x_max":623,"ha":623,"o":"m 41 0 l 41 53 l 105 53 l 105 421 l 41 421 l 41 475 l 240 475 l 240 409 q 262 449 297 467 q 331 486 383 486 q 463 486 496 450 q 529 414 529 323 l 529 53 l 594 53 l 594 0 l 348 0 l 348 53 l 395 53 l 395 312 q 395 369 380 391 q 365 413 329 413 q 282 413 261 378 q 240 344 240 263 l 240 53 l 286 53 l 286 0 z"},"h":{"x_min":0,"x_max":616,"ha":616,"o":"m 34 0 l 34 53 l 98 53 l 98 620 l 34 620 l 34 674 l 233 674 l 233 409 q 255 449 290 467 q 324 486 376 486 q 456 486 489 450 q 522 414 522 323 l 522 53 l 587 53 l 587 0 l 341 0 l 341 53 l 388 53 l 388 312 q 388 369 373 391 q 358 413 322 413 q 275 413 254 378 q 233 344 233 263 l 233 53 l 279 53 l 279 0 z"},"z":{"x_min":0,"x_max":509,"ha":509,"o":"m 41 0 l 41 17 l 290 421 l 119 421 l 119 336 l 57 336 l 57 475 l 464 475 l 464 462 l 212 53 l 405 53 l 405 146 l 468 146 l 468 0 z"},"B":{"x_min":0,"x_max":685,"ha":685,"o":"m 290 387 l 326 387 q 393 387 424 415 q 455 442 455 501 q 455 552 427 584 q 398 616 354 616 l 317 616 l 290 616 z m 290 58 l 339 58 q 408 58 439 91 q 470 124 470 196 q 470 269 438 301 q 405 332 325 332 l 290 332 z m 59 0 l 59 58 l 142 58 l 142 616 l 59 616 l 59 674 l 329 674 q 342 674 365 673 q 387 673 395 673 q 494 673 550 629 q 606 584 606 507 q 606 450 569 413 q 531 376 463 366 q 541 353 584 307 q 627 261 627 192 q 627 136 602 94 q 577 52 530 29 q 498 14 458 7 q 418 0 338 0 l 324 0 z"},"K":{"x_min":0,"x_max":751,"ha":751,"o":"m 59 0 l 59 58 l 142 58 l 142 616 l 59 616 l 59 674 l 371 674 l 371 616 l 290 616 l 290 362 l 563 616 l 493 616 l 493 674 l 729 674 l 729 616 l 651 616 l 454 433 l 678 58 l 738 58 l 738 0 l 437 0 l 437 58 l 501 58 l 346 336 l 290 285 l 290 58 l 371 58 l 371 0 z"},"R":{"x_min":0,"x_max":699,"ha":699,"o":"m 277 313 l 307 313 q 383 313 420 351 q 457 388 457 465 q 457 539 421 578 q 386 616 317 616 l 277 616 z m 50 0 l 50 58 l 134 58 l 134 616 l 50 616 l 50 674 l 276 674 q 352 674 400 668 q 449 662 482 649 q 544 624 579 574 q 613 525 613 461 q 613 398 573 353 q 534 308 458 285 q 481 257 493 241 q 504 225 512 211 l 553 141 q 555 137 559 131 q 602 58 659 58 l 659 0 q 626 -1 607 -2 q 587 -3 581 -3 l 542 -3 q 499 -3 475 14 q 452 30 422 82 l 335 232 q 327 247 316 253 q 305 259 287 259 l 277 259 l 277 58 l 359 58 l 359 0 z"},"T":{"x_min":0,"x_max":639,"ha":639,"o":"m 161 0 l 161 58 l 244 58 l 244 606 l 75 606 l 75 528 l 10 528 l 10 674 l 628 674 l 628 528 l 563 528 l 563 606 l 395 606 l 395 58 l 478 58 l 478 0 z"},"P":{"x_min":0,"x_max":627,"ha":627,"o":"m 285 308 l 314 308 q 384 308 418 344 q 452 381 452 457 q 452 531 418 573 q 384 616 326 616 l 285 616 z m 50 0 l 50 58 l 138 58 l 138 616 l 50 616 l 50 674 l 284 674 q 370 674 418 665 q 466 657 502 637 q 547 612 573 565 q 599 519 599 462 q 599 364 527 307 q 455 250 330 250 l 285 250 l 285 58 l 378 58 l 378 0 z"},"|":{"x_min":0,"x_max":500,"ha":500,"o":"m 200 764 l 301 764 l 301 -236 l 200 -236 z"},"t":{"x_min":0,"x_max":338,"ha":338,"o":"m 90 421 l 27 421 l 27 475 l 90 475 l 90 609 l 224 659 l 224 475 l 310 475 l 310 421 l 224 421 l 224 87 q 224 58 229 48 q 233 38 244 38 q 256 38 266 52 q 275 65 281 92 l 332 68 q 314 28 283 8 q 252 -12 209 -12 q 144 -12 117 16 q 90 44 90 119 z"},"M":{"x_min":0,"x_max":1037,"ha":1037,"o":"m 47 0 l 47 58 l 126 58 l 126 616 l 47 616 l 47 674 l 268 674 l 513 154 l 751 674 l 970 674 l 970 616 l 892 616 l 892 58 l 970 58 l 970 0 l 666 0 l 666 58 l 745 58 l 745 539 l 506 12 l 428 12 l 184 521 l 184 58 l 263 58 l 263 0 z"},"g":{"x_min":0,"x_max":593,"ha":593,"o":"m 365 202 l 365 270 q 365 351 344 388 q 322 425 276 425 q 228 425 206 379 q 183 334 183 236 q 183 138 206 92 q 228 46 276 46 q 322 46 344 83 q 365 121 365 202 z m 499 77 q 499 -16 492 -58 q 485 -101 468 -131 q 444 -174 393 -197 q 342 -220 269 -220 q 189 -220 138 -202 q 86 -184 54 -144 l 144 -64 q 166 -116 198 -143 q 231 -171 271 -171 q 323 -171 344 -131 q 365 -91 365 17 l 365 49 q 344 18 313 3 q 283 -12 242 -12 q 147 -12 93 52 q 39 116 39 229 q 39 350 89 418 q 139 486 228 486 q 275 486 309 469 q 343 453 365 420 l 365 475 l 564 475 l 564 421 l 499 421 z"},"j":{"x_min":0,"x_max":308,"ha":308,"o":"m 93 611 q 93 638 115 661 q 138 683 165 683 q 194 683 215 661 q 237 640 237 611 q 237 580 216 560 q 196 539 165 539 q 135 539 114 560 q 93 581 93 611 z m 100 421 l 33 421 l 33 475 l 234 475 l 234 -42 q 234 -138 200 -179 q 167 -220 90 -220 q 52 -220 27 -206 q 1 -192 -11 -165 l 33 -119 q 40 -148 49 -161 q 59 -174 72 -174 q 87 -174 94 -156 q 100 -138 100 -87 z"},"i":{"x_min":0,"x_max":336,"ha":336,"o":"m 240 53 l 308 53 l 308 0 l 37 0 l 37 53 l 105 53 l 105 421 l 41 421 l 41 475 l 240 475 z m 93 611 q 93 638 115 661 q 138 683 165 683 q 194 683 215 661 q 237 640 237 611 q 237 580 216 560 q 196 539 165 539 q 135 539 114 560 q 93 581 93 611 z"},"y":{"x_min":0,"x_max":551,"ha":551,"o":"m 249 -9 l 60 421 l 15 421 l 15 475 l 269 475 l 269 421 l 211 421 l 321 147 l 433 421 l 376 421 l 376 475 l 539 475 l 539 421 l 494 421 l 249 -160 l 315 -160 l 315 -213 l 121 -213 l 121 -160 l 188 -160 z"},"@":{"x_min":0,"x_max":986,"ha":986,"o":"m 574 156 q 544 107 509 83 q 473 60 430 60 q 361 60 322 104 q 282 149 282 227 q 282 283 307 335 q 331 388 377 431 q 411 462 449 479 q 488 495 528 495 q 575 495 601 473 q 628 451 636 406 l 660 486 l 753 486 l 668 184 l 667 181 q 660 152 660 138 q 660 115 670 102 q 680 89 697 89 q 713 89 738 101 q 764 113 786 132 q 836 175 863 238 q 890 301 890 377 q 890 511 798 595 q 706 678 559 678 q 492 678 431 660 q 371 641 320 605 q 235 546 190 454 q 144 363 144 251 q 144 87 247 -9 q 350 -105 523 -105 q 604 -105 679 -80 q 754 -56 829 -4 l 848 -29 q 774 -84 693 -112 q 611 -139 523 -139 q 432 -139 353 -117 q 275 -94 218 -52 q 144 3 104 84 q 65 165 65 261 q 65 337 90 407 q 116 477 165 536 q 236 621 334 667 q 433 712 547 712 q 717 712 820 620 q 922 527 922 374 q 922 295 893 228 q 864 160 810 111 q 781 85 748 72 q 715 58 681 58 q 633 58 605 83 q 578 109 574 156 z m 546 463 q 516 463 491 441 q 466 419 442 371 q 414 315 399 266 q 385 217 385 177 q 385 138 402 115 q 418 93 447 93 q 478 93 508 123 q 537 153 564 212 q 583 257 595 302 q 606 348 606 382 q 606 421 590 442 q 575 463 546 463 z"},".":{"x_min":0,"x_max":280,"ha":280,"o":"m 61 73 q 61 103 85 127 q 109 152 139 152 q 171 152 195 128 q 219 104 219 73 q 219 40 196 17 q 173 -6 139 -6 q 108 -6 84 18 q 61 41 61 73 z"},"p":{"x_min":0,"x_max":595,"ha":595,"o":"m 230 270 l 230 202 q 230 120 251 83 q 272 46 319 46 q 367 46 390 92 q 412 138 412 236 q 412 334 390 379 q 367 425 319 425 q 273 425 251 388 q 230 351 230 270 z m 230 -160 l 295 -160 l 295 -213 l 31 -213 l 31 -160 l 96 -160 l 96 421 l 31 421 l 31 475 l 230 475 l 230 420 q 252 453 286 469 q 320 486 367 486 q 454 486 505 419 q 556 352 556 237 q 556 122 501 55 q 447 -12 353 -12 q 312 -12 282 3 q 251 18 230 49 z"},"X":{"x_min":0,"x_max":706,"ha":706,"o":"m 401 0 l 401 58 l 476 58 l 314 281 l 144 58 l 217 58 l 217 0 l -1 0 l -1 58 l 71 58 l 280 328 l 70 616 l -1 616 l -1 674 l 323 674 l 323 616 l 248 616 l 375 439 l 510 616 l 434 616 l 434 674 l 667 674 l 667 616 l 580 616 l 409 393 l 653 58 l 727 58 l 727 0 z"},"*":{"x_min":0,"x_max":440,"ha":440,"o":"m 265 593 l 363 600 l 311 514 l 364 432 l 266 434 l 215 343 l 169 434 l 71 432 l 122 515 l 70 600 l 170 593 l 217 683 z"},"Y":{"x_min":0,"x_max":653,"ha":653,"o":"m 171 0 l 171 58 l 252 58 l 252 248 l 50 616 l -18 616 l -18 674 l 308 674 l 308 616 l 226 616 l 376 324 l 533 616 l 451 616 l 451 674 l 657 674 l 657 616 l 598 616 l 403 248 l 403 58 l 484 58 l 484 0 z"},"c":{"x_min":0,"x_max":475,"ha":475,"o":"m 451 57 q 419 23 375 5 q 332 -12 278 -12 q 166 -12 103 53 q 39 119 39 234 q 39 342 102 415 q 165 487 259 487 q 299 487 332 474 q 364 460 387 435 l 387 475 l 443 475 l 443 308 l 392 308 q 391 363 366 392 q 342 422 297 422 q 244 422 216 373 q 187 324 187 232 q 187 138 217 88 q 247 39 303 39 q 334 39 363 56 q 392 74 416 107 z"},"!":{"x_min":0,"x_max":384,"ha":384,"o":"m 149 194 q 148 291 139 403 q 130 516 111 674 l 268 674 q 249 517 240 404 q 230 291 229 194 z m 117 67 q 117 94 139 116 q 162 139 188 139 q 217 139 239 117 q 261 95 261 67 q 261 37 240 16 q 219 -5 189 -5 q 160 -5 138 16 q 117 37 117 67 z"},"/":{"x_min":0,"x_max":287,"ha":287,"o":"m 309 683 l 26 -93 l -53 -93 l 230 683 z"},"[":{"x_min":0,"x_max":380,"ha":380,"o":"m 114 -159 l 114 722 l 328 722 l 328 671 l 241 671 l 241 -108 l 328 -108 l 328 -159 z"},"6":{"x_min":0,"x_max":560,"ha":560,"o":"m 197 217 q 197 123 217 82 q 237 41 283 41 q 328 41 348 82 q 368 123 368 217 q 368 313 348 353 q 328 392 280 392 q 237 392 217 351 q 197 309 197 217 z m 200 400 q 220 428 250 442 q 281 456 323 456 q 408 456 459 397 q 511 337 511 238 q 511 129 449 60 q 386 -9 287 -9 q 175 -9 112 76 q 50 161 50 313 q 50 483 115 577 q 181 672 299 672 q 379 672 427 632 q 476 592 476 527 l 476 525 l 362 525 q 360 576 344 600 q 328 624 294 624 q 247 624 226 576 q 205 527 200 400 z"},"r":{"x_min":0,"x_max":426,"ha":426,"o":"m 41 0 l 41 53 l 105 53 l 105 421 l 41 421 l 41 475 l 234 475 l 234 387 q 256 435 287 460 q 317 486 353 486 q 389 486 411 463 q 434 441 435 403 l 345 340 q 341 376 332 392 q 323 407 306 407 q 277 407 259 366 q 241 324 241 254 l 241 53 l 313 53 l 313 0 z"},"2":{"x_min":0,"x_max":560,"ha":560,"o":"m 35 0 l 31 9 l 36 15 q 327 360 327 499 q 327 558 306 589 q 284 621 245 621 q 207 621 186 594 q 166 566 166 513 q 166 510 167 504 q 167 498 167 495 l 41 495 l 41 497 q 41 577 100 624 q 159 672 257 672 q 358 672 419 623 q 480 573 480 493 q 480 383 250 166 q 208 126 186 104 l 422 104 l 422 171 l 481 171 l 481 0 z"},"{":{"x_min":0,"x_max":500,"ha":500,"o":"m 416 740 l 416 710 q 357 709 335 684 q 314 658 314 581 l 314 516 q 314 406 288 366 q 262 326 192 310 q 262 294 288 255 q 314 215 314 105 l 314 39 q 314 -38 335 -63 q 357 -89 416 -90 l 416 -119 q 301 -119 260 -84 q 218 -48 218 50 l 218 144 q 218 225 190 255 q 163 285 87 292 l 87 329 q 163 336 190 366 q 218 396 218 477 l 218 571 q 218 669 260 705 q 301 740 416 740 z"},"9":{"x_min":0,"x_max":560,"ha":560,"o":"m 278 621 q 231 621 210 581 q 190 541 190 445 q 190 350 210 310 q 229 270 274 270 q 320 270 340 310 q 360 351 360 445 q 360 538 340 580 q 321 621 278 621 z m 357 262 q 337 233 307 220 q 277 206 235 206 q 150 206 98 265 q 47 325 47 424 q 47 534 110 602 q 172 671 271 671 q 382 671 445 586 q 507 501 507 349 q 507 179 442 85 q 376 -9 259 -9 q 179 -9 130 31 q 81 70 81 135 l 81 137 l 195 137 q 197 85 213 62 q 229 38 263 38 q 310 38 331 86 q 352 135 357 262 z"}," ":{"x_min":0,"x_max":280,"ha":280,"o":""},"I":{"x_min":0,"x_max":428,"ha":428,"o":"m 290 58 l 377 58 l 377 0 l 51 0 l 51 58 l 139 58 l 139 616 l 51 616 l 51 674 l 377 674 l 377 616 l 290 616 z"},"H":{"x_min":0,"x_max":875,"ha":875,"o":"m 56 0 l 56 58 l 139 58 l 139 616 l 56 616 l 56 674 l 373 674 l 373 616 l 290 616 l 290 388 l 586 388 l 586 616 l 502 616 l 502 674 l 819 674 l 819 616 l 736 616 l 736 58 l 819 58 l 819 0 l 502 0 l 502 58 l 586 58 l 586 334 l 290 334 l 290 58 l 373 58 l 373 0 z"},"4":{"x_min":0,"x_max":560,"ha":560,"o":"m 293 243 l 293 530 l 131 243 z m 219 0 l 219 53 l 293 53 l 293 169 l 37 169 l 34 175 l 318 671 l 427 671 l 427 243 l 499 243 l 499 169 l 427 169 l 427 53 l 499 53 l 499 0 z"},"~":{"x_min":0,"x_max":833,"ha":833,"o":"m 747 392 l 747 284 q 696 250 651 233 q 606 217 562 217 q 540 217 517 221 q 495 225 472 232 q 460 236 438 244 q 331 281 275 281 q 233 281 188 262 q 143 244 87 204 l 87 312 q 139 347 187 365 q 234 382 276 382 q 333 382 418 354 l 420 353 q 429 350 447 344 q 522 317 564 317 q 605 317 649 335 q 693 353 747 392 z"},"D":{"x_min":0,"x_max":785,"ha":785,"o":"m 290 616 l 290 58 l 338 58 q 453 58 507 126 q 562 194 562 337 q 562 479 507 548 q 453 616 338 616 z m 56 0 l 56 58 l 139 58 l 139 616 l 56 616 l 56 674 l 339 674 q 434 674 488 662 q 542 651 586 624 q 658 580 697 506 q 735 433 735 337 q 735 241 696 167 q 658 92 586 49 q 542 23 489 11 q 436 0 339 0 z"},"^":{"x_min":0,"x_max":1000,"ha":1000,"o":"m 442 714 l 557 714 l 797 438 l 742 438 l 499 620 l 256 438 l 201 438 z"},"0":{"x_min":0,"x_max":560,"ha":560,"o":"m 280 42 q 326 42 344 94 q 361 146 361 332 q 361 518 343 570 q 326 622 280 622 q 234 622 217 572 q 199 522 199 332 q 199 142 217 92 q 234 42 280 42 z m 280 -9 q 172 -9 109 82 q 46 173 46 331 q 46 489 109 580 q 172 671 280 671 q 388 671 451 580 q 514 489 514 331 q 514 173 451 82 q 388 -9 280 -9 z"},"F":{"x_min":0,"x_max":657,"ha":657,"o":"m 56 0 l 56 58 l 139 58 l 139 616 l 56 616 l 56 674 l 601 674 l 601 530 l 537 530 l 537 604 l 290 604 l 290 385 l 503 385 l 503 459 l 568 459 l 568 260 l 503 260 l 503 334 l 290 334 l 290 58 l 387 58 l 387 0 z"},"`":{"x_min":0,"x_max":500,"ha":500,"o":"m 107 721 l 233 721 l 329 540 l 260 540 z"},"k":{"x_min":0,"x_max":587,"ha":587,"o":"m 34 0 l 34 53 l 98 53 l 98 620 l 34 620 l 34 674 l 233 674 l 233 247 l 410 421 l 347 421 l 347 475 l 550 475 l 550 421 l 487 421 l 382 321 l 545 53 l 581 53 l 581 0 l 335 0 l 335 53 l 390 53 l 285 226 l 233 181 l 233 53 l 280 53 l 280 0 z"},"u":{"x_min":0,"x_max":623,"ha":623,"o":"m 386 421 l 321 421 l 321 475 l 520 475 l 520 53 l 585 53 l 585 0 l 386 0 l 386 66 q 364 26 329 7 q 294 -12 242 -12 q 163 -12 130 24 q 97 60 97 152 l 97 421 l 32 421 l 32 475 l 231 475 l 231 163 q 231 106 246 84 q 260 62 296 62 q 344 62 365 97 q 386 131 386 211 z"},"]":{"x_min":0,"x_max":380,"ha":380,"o":"m 259 722 l 259 -159 l 45 -159 l 45 -108 l 133 -108 l 133 671 l 45 671 l 45 722 z"},"U":{"x_min":0,"x_max":794,"ha":794,"o":"m 120 616 l 39 616 l 39 674 l 351 674 l 351 616 l 271 616 l 271 249 q 271 135 309 90 q 347 44 438 44 q 536 44 578 96 q 621 148 621 272 l 621 616 l 547 616 l 547 674 l 753 674 l 753 616 l 679 616 l 679 262 q 679 113 614 52 q 548 -10 390 -10 q 316 -10 267 4 q 218 19 184 50 q 149 81 135 123 q 120 166 120 264 l 120 272 z"},"o":{"x_min":0,"x_max":581,"ha":581,"o":"m 290 37 q 341 37 367 87 q 393 138 393 237 q 393 336 367 387 q 341 437 290 437 q 239 437 213 387 q 187 336 187 237 q 187 138 213 87 q 239 37 290 37 z m 291 -12 q 182 -12 110 58 q 39 128 39 237 q 39 345 110 416 q 182 486 291 486 q 400 486 471 416 q 542 346 542 237 q 542 128 471 58 q 400 -12 291 -12 z"},"N":{"x_min":0,"x_max":856,"ha":856,"o":"m 47 0 l 47 58 l 126 58 l 126 616 l 47 616 l 47 674 l 263 674 l 680 183 l 680 616 l 601 616 l 601 674 l 816 674 l 816 616 l 737 616 l 737 0 l 645 0 l 184 541 l 184 58 l 263 58 l 263 0 z"},"+":{"x_min":0,"x_max":833,"ha":833,"o":"m 367 596 l 466 596 l 466 347 l 709 347 l 709 250 l 466 250 l 466 0 l 367 0 l 367 250 l 124 250 l 124 347 l 367 347 z"},"G":{"x_min":0,"x_max":796,"ha":796,"o":"m 692 0 l 639 55 q 597 23 543 7 q 489 -9 426 -9 q 248 -9 145 84 q 43 177 43 337 q 43 491 145 587 q 248 683 412 683 q 482 683 535 668 q 588 654 625 625 l 657 674 l 716 674 l 716 481 l 648 481 q 622 553 568 591 q 515 630 441 630 q 333 630 274 554 q 214 479 214 343 q 214 201 277 119 q 339 37 447 37 q 519 37 559 75 q 600 112 600 179 l 600 249 l 504 249 l 504 307 l 745 307 l 745 0 z"},"q":{"x_min":0,"x_max":595,"ha":595,"o":"m 365 202 l 365 270 q 365 351 344 388 q 322 425 276 425 q 228 425 206 379 q 183 334 183 236 q 183 138 206 92 q 228 46 276 46 q 322 46 344 83 q 365 121 365 202 z m 300 -213 l 300 -160 l 365 -160 l 365 49 q 343 18 312 3 q 282 -12 241 -12 q 146 -12 93 52 q 39 117 39 231 q 39 345 93 415 q 147 486 234 486 q 277 486 311 468 q 345 450 378 409 l 413 475 l 564 475 l 564 421 l 499 421 l 499 -160 l 564 -160 l 564 -213 z"},"d":{"x_min":0,"x_max":595,"ha":595,"o":"m 365 202 l 365 270 q 365 351 344 388 q 322 425 276 425 q 228 425 206 379 q 183 334 183 236 q 183 138 206 92 q 228 46 276 46 q 322 46 344 83 q 365 121 365 202 z m 365 620 l 293 620 l 293 674 l 499 674 l 499 53 l 564 53 l 564 0 l 365 0 l 365 49 q 343 18 312 3 q 282 -12 241 -12 q 146 -12 93 52 q 39 117 39 231 q 39 345 94 416 q 148 486 235 486 q 275 486 307 470 q 339 455 365 423 z"},"1":{"x_min":0,"x_max":560,"ha":560,"o":"m 131 0 l 131 56 l 221 56 l 221 544 l 132 477 l 101 520 q 149 557 192 595 q 235 632 275 671 l 358 671 l 358 56 l 448 56 l 448 0 z"},"5":{"x_min":0,"x_max":560,"ha":560,"o":"m 175 195 l 175 180 q 175 110 196 75 q 216 41 258 41 q 304 41 328 85 q 352 128 352 212 q 352 286 323 326 q 293 366 240 366 q 209 366 179 356 q 149 346 117 324 l 104 336 l 192 662 l 488 662 l 458 551 l 214 551 l 175 404 q 206 417 235 424 q 265 430 294 430 q 388 430 445 373 q 502 316 502 222 q 502 116 438 54 q 374 -9 264 -9 q 166 -9 107 46 q 49 101 49 193 l 49 195 z"}}}
